<?xml version="1.0" encoding="UTF-8" standalone="no"?>
<!-- Created with Inkscape (http://www.inkscape.org/) -->

<svg
   xmlns:dc="http://purl.org/dc/elements/1.1/"
   xmlns:cc="http://creativecommons.org/ns#"
   xmlns:rdf="http://www.w3.org/1999/02/22-rdf-syntax-ns#"
   xmlns:svg="http://www.w3.org/2000/svg"
   xmlns="http://www.w3.org/2000/svg"
   xmlns:xlink="http://www.w3.org/1999/xlink"
   xmlns:sodipodi="http://sodipodi.sourceforge.net/DTD/sodipodi-0.dtd"
   xmlns:inkscape="http://www.inkscape.org/namespaces/inkscape"
   width="744.09448819"
   height="1052.3622047"
   id="svg2"
   version="1.1"
   inkscape:version="0.48+devel r"
   sodipodi:docname="segments.svg">
  <defs
     id="defs4">
    <inkscape:path-effect
       effect="bend_path"
       id="path-effect4200"
       is_visible="true"
       bendpath="m 228.62745,583.40401 c 16.85274,-20.34347 27.68534,-33.58246 50.52428,-44.7511 31.88394,-15.59178 86.98407,-10.99052 117.16915,18.56352"
       prop_scale="1"
       scale_y_rel="false"
       vertical="false"
       bendpath-nodetypes="csc" />
    <inkscape:path-effect
       effect="bend_path"
       id="path-effect3110"
       is_visible="true"
       bendpath="m 18.650318,298.9829 259.104142,0"
       prop_scale="1"
       scale_y_rel="false"
       vertical="false" />
    <inkscape:path-effect
       effect="bend_path"
       id="path-effect3108"
       is_visible="true"
       bendpath="m 225.0066,630.42247 146.72465,0"
       prop_scale="1"
       scale_y_rel="false"
       vertical="false" />
    <inkscape:path-effect
       effect="skeletal"
       id="path-effect3106"
       is_visible="true"
       pattern="M 0,0 1,0"
       copytype="single_stretched"
       prop_scale="1"
       scale_y_rel="false"
       spacing="0"
       normal_offset="0"
       tang_offset="0"
       prop_units="false"
       vertical_pattern="false"
       fuse_tolerance="0" />
    <inkscape:path-effect
       effect="bend_path"
       id="path-effect3104"
       is_visible="true"
       bendpath="m 270.72089,606.63238 146.72465,0"
       prop_scale="1.15"
       scale_y_rel="false"
       vertical="false" />
    <filter
       id="filter4210"
       inkscape:label="Noise fill"
       inkscape:menu="ABCs"
       inkscape:menu-tooltip="Basic noise fill texture; adjust color in Flood"
       color-interpolation-filters="sRGB">
      <feTurbulence
         id="feTurbulence4212"
         numOctaves="1"
         baseFrequency="0.076444444444444454"
         type="fractalNoise"
         seed="151" />
      <feColorMatrix
         id="feColorMatrix4214"
         result="result0"
         values="0.45318352059925093"
         type="saturate" />
      <feFlood
         id="feFlood4216"
         flood-opacity="0.56088560885608851"
         flood-color="rgb(232,232,232)"
         result="result1" />
      <feBlend
         id="feBlend4218"
         in2="SourceGraphic"
         mode="normal"
         in="result1"
         result="result2" />
      <feComposite
         id="feComposite4220"
         in2="result0"
         operator="out"
         result="result3" />
      <feComposite
         id="feComposite4222"
         in2="SourceGraphic"
         operator="atop" />
    </filter>
    <filter
       inkscape:collect="always"
       id="filter4260">
      <feGaussianBlur
         inkscape:collect="always"
         stdDeviation="0.25719213"
         id="feGaussianBlur4262" />
    </filter>
  </defs>
  <sodipodi:namedview
     id="base"
     pagecolor="#ffffff"
     bordercolor="#666666"
     borderopacity="1.0"
     inkscape:pageopacity="0.0"
     inkscape:pageshadow="2"
     inkscape:zoom="2.14375"
     inkscape:cx="436.19669"
     inkscape:cy="456.85192"
     inkscape:document-units="px"
     inkscape:current-layer="layer1"
     showgrid="false"
     inkscape:window-width="1920"
     inkscape:window-height="1060"
     inkscape:window-x="1276"
     inkscape:window-y="-3"
     inkscape:window-maximized="1" />
  <metadata
     id="metadata7">
    <rdf:RDF>
      <cc:Work
         rdf:about="">
        <dc:format>image/svg+xml</dc:format>
        <dc:type
           rdf:resource="http://purl.org/dc/dcmitype/StillImage" />
        <dc:title />
      </cc:Work>
    </rdf:RDF>
  </metadata>
  <g
     inkscape:label="Layer 1"
     inkscape:groupmode="layer"
     id="layer1">
    <flowRoot
       xml:space="preserve"
       id="flowRoot3069"
       style="fill:black;stroke:none;stroke-opacity:1;stroke-width:1px;stroke-linejoin:miter;stroke-linecap:butt;fill-opacity:1;font-family:Arial;font-style:normal;font-weight:normal;font-size:8;-inkscape-font-specification:Arial;font-stretch:normal;font-variant:normal;text-anchor:middle;text-align:center;line-height:125%;letter-spacing:0px;word-spacing:0px"><flowRegion
         id="flowRegion3071"><rect
           id="rect3073"
           width="64.144684"
           height="54.800777"
           x="316.68283"
           y="427.07776" /></flowRegion><flowPara
         id="flowPara3075" /></flowRoot>    <g
       id="g3141"
       transform="translate(-0.71428572,0)">
      <text
         sodipodi:linespacing="125%"
         id="text3077"
         style="font-size:12px;font-style:normal;font-variant:normal;font-weight:bold;font-stretch:normal;text-align:center;line-height:125%;letter-spacing:0px;word-spacing:0px;text-anchor:middle;fill:#000000;fill-opacity:1;stroke:none;font-family:Arial;-inkscape-font-specification:Arial Bold"
         xml:space="preserve"><textPath
           xlink:href="#path3163"
           startOffset="50%"
           id="textPath3184">H<tspan
   style="font-size:65.00091553000000033%;baseline-shift:sub;font-weight:bold;-inkscape-font-specification:Arial Bold"
   id="tspan3081">2</tspan>N - CH - CO - NH - CH<tspan
   style="font-size:65.00091553000000033%;baseline-shift:sub;font-weight:bold;-inkscape-font-specification:Arial Bold"
   id="tspan3083">2</tspan> - CO - NH - CH - COOH</textPath></text>
      <g
         id="g3189"
         transform="matrix(0.80872877,-0.58818176,0.58818176,0.80872877,-195.47038,331.72759)">
        <text
           xml:space="preserve"
           style="font-size:12px;font-style:normal;font-variant:normal;font-weight:bold;font-stretch:normal;text-align:center;line-height:125%;letter-spacing:0px;word-spacing:0px;text-anchor:middle;fill:#000000;fill-opacity:1;stroke:none;font-family:Arial;-inkscape-font-specification:Arial Bold"
           x="238.9482"
           y="421.09311"
           id="text3104"
           sodipodi:linespacing="125%"><tspan
             sodipodi:role="line"
             id="tspan3106"
             x="238.9482"
             y="421.09311">CH<tspan
   style="font-size:65.00091553000000033%;baseline-shift:sub;font-weight:bold;-inkscape-font-specification:Arial Bold"
   id="tspan3108">3</tspan></tspan></text>
        <text
           xml:space="preserve"
           style="font-size:12px;font-style:normal;font-variant:normal;font-weight:bold;font-stretch:normal;text-align:center;line-height:125%;letter-spacing:0px;word-spacing:0px;text-anchor:middle;fill:#000000;fill-opacity:1;stroke:none;font-family:Arial;-inkscape-font-specification:Arial Bold"
           x="-427.82227"
           y="-233.67438"
           id="text3116"
           sodipodi:linespacing="125%"
           transform="matrix(0,-1,-1,0,0,0)"><tspan
             sodipodi:role="line"
             id="tspan3118"
             x="-427.82227"
             y="-233.67438">-</tspan></text>
      </g>
      <g
         id="g3196"
         transform="matrix(0.9796446,0.20073979,-0.20073979,0.9796446,107.87664,7.6970408)">
        <text
           xml:space="preserve"
           style="font-size:12px;font-style:normal;font-variant:normal;font-weight:bold;font-stretch:normal;text-align:center;line-height:125%;letter-spacing:0px;word-spacing:0px;text-anchor:middle;fill:#000000;fill-opacity:1;stroke:none;font-family:Arial;-inkscape-font-specification:Arial Bold"
           x="412.85715"
           y="418.8898"
           id="text3110"
           sodipodi:linespacing="125%"><tspan
             sodipodi:role="line"
             id="tspan3112"
             x="412.85715"
             y="418.8898">CH<tspan
   style="font-size:65.00091553000000033%;baseline-shift:sub;font-weight:bold;-inkscape-font-specification:Arial Bold"
   id="tspan3114">2</tspan>OH</tspan></text>
        <text
           xml:space="preserve"
           style="font-size:12px;font-style:normal;font-variant:normal;font-weight:bold;font-stretch:normal;text-align:center;line-height:125%;letter-spacing:0px;word-spacing:0px;text-anchor:middle;fill:#000000;fill-opacity:1;stroke:none;font-family:Arial;-inkscape-font-specification:Arial Bold"
           x="-427.82227"
           y="-409.03445"
           id="text3116-5"
           sodipodi:linespacing="125%"
           transform="matrix(0,-1,-1,0,0,0)"><tspan
             sodipodi:role="line"
             id="tspan3118-9"
             x="-427.82227"
             y="-409.03445">-</tspan></text>
      </g>
    </g>
    <path
       style="fill:none;stroke:#000000;stroke-width:0;stroke-linecap:butt;stroke-linejoin:miter;stroke-opacity:1;stroke-miterlimit:4;stroke-dasharray:none"
       d="m 221.2234,586.68186 c 0,0 49.49748,-73.74114 144.45182,-71.21576 94.95434,2.52539 114.65232,33.84011 114.65232,33.84011"
       id="path3163"
       inkscape:connector-curvature="0"
       sodipodi:nodetypes="csc" />
    <path
       style="fill:none;stroke:#000000;stroke-width:1px;stroke-linecap:butt;stroke-linejoin:miter;stroke-opacity:1"
       d="m 18.650318,334.62249 c 0,0 24.49568,-36.49356 72.080321,-57.25634 20.056911,-8.7515 44.215861,-14.70824 72.371501,-13.95942 3.3499,0.0891 6.60613,0.21402 9.77114,0.37213 86.54854,4.32378 104.88118,33.46798 104.88118,33.46798"
       id="path3163-9"
       inkscape:connector-curvature="0"
       sodipodi:nodetypes="csssc"
       inkscape:path-effect="#path-effect3110"
       inkscape:original-d="m 18.650318,334.62249 c 0,0 24.49568,-36.49356 72.080321,-57.25634 20.056911,-8.7515 44.215861,-14.70824 72.371501,-13.95942 3.3499,0.0891 6.60613,0.21402 9.77114,0.37213 86.54854,4.32378 104.88118,33.46798 104.88118,33.46798" />
    <g
       id="g3916"
       transform="matrix(1.3783581,0,0,1,-74.208447,56.359094)"
       inkscape:path-effect="#path-effect4200"
       style="filter:url(#filter4260)">
      <path
         inkscape:connector-curvature="0"
         id="rect3099"
         d="m 225.32549,579.32787 c 7.11016,-8.60981 14.34169,-17.4695 22.78746,-25.47684 7.04461,-6.64923 14.93348,-12.33724 23.37106,-17.00251 0.52448,-0.28999 1.15493,-0.13859 1.41075,0.33411 l 3.97121,7.33807 c 0.25582,0.47271 0.0733,1.06291 -0.40646,1.32809 -7.7187,4.26619 -14.91152,9.44535 -21.28293,15.47598 -7.82108,7.36691 -14.76555,15.92093 -21.92626,24.55979 -0.3671,0.44288 -0.99647,0.52359 -1.41036,0.18072 l -6.42502,-5.32254 c -0.41389,-0.34287 -0.45396,-0.97348 -0.0894,-1.41487 0,0 0,0 0,0 z"
         style="fill:#0000ff;fill-opacity:1;stroke:#333333;stroke-width:0.34113917;stroke-linecap:round;stroke-linejoin:round;stroke-miterlimit:4;stroke-opacity:1;stroke-dasharray:none;stroke-dashoffset:0"
         inkscape:original-d="m 229.56659,578.26223 55.55762,0 c 0.52029,0 0.93914,0.43268 0.93914,0.97014 l 0,8.34328 c 0,0.53746 -0.41885,0.97014 -0.93914,0.97014 l -55.55762,0 c -0.52029,0 -0.93914,-0.43268 -0.93914,-0.97014 l 0,-8.34328 c 0,-0.53746 0.41885,-0.97014 0.93914,-0.97014 z" />
      <path
         inkscape:connector-curvature="0"
         id="rect3099-0"
         d="m 274.93463,535.01305 c 0.64989,-0.33232 1.3027,-0.65873 1.9583,-0.9792 9.24869,-4.49607 19.19366,-7.06247 29.11795,-8.31413 0,0 0,0 0,0 10.51764,-1.34675 21.17073,-1.29102 31.64105,0.007 0.59215,0.0734 1.01163,0.56582 0.94136,1.09868 l -1.09091,8.27185 c -0.0703,0.53285 -0.56652,0.90357 -1.11323,0.8361 -9.66689,-1.19307 -19.46253,-1.25107 -29.06869,-0.0141 -1e-5,0 -1e-5,0 -1e-5,0 -9.07504,1.18769 -17.95066,3.43351 -25.90992,7.35241 0,0 0,0 0,0 -0.60042,0.29375 -1.19818,0.59281 -1.79316,0.89715 -0.48829,0.24978 -1.07977,0.0712 -1.32875,-0.40511 l -3.86514,-7.39452 c -0.24899,-0.47634 -0.0222,-1.0837 0.51115,-1.35644 z"
         style="fill:#ffcc00;fill-opacity:1;stroke:#333333;stroke-width:0.34113917;stroke-linecap:round;stroke-linejoin:round;stroke-miterlimit:4;stroke-opacity:1;stroke-dasharray:none;stroke-dashoffset:0"
         inkscape:original-d="m 288.51819,578.26223 55.55762,0 c 0.52029,0 0.93914,0.43268 0.93914,0.97014 l 0,8.34328 c 0,0.53746 -0.41885,0.97014 -0.93914,0.97014 l -55.55762,0 c -0.52029,0 -0.93914,-0.43268 -0.93914,-0.97014 l 0,-8.34328 c 0,-0.53746 0.41885,-0.97014 0.93914,-0.97014 z" />
      <path
         inkscape:connector-curvature="0"
         id="rect3099-0-2"
         d="m 341.50823,526.26059 c 10.38595,1.59063 20.62214,4.44126 30.31874,8.68544 9.93169,4.33638 19.30852,10.24119 27.29483,17.8297 0.44373,0.42163 0.49356,1.07588 0.11755,1.45991 l -5.83694,5.96158 c -0.37601,0.38403 -0.98523,0.39091 -1.37197,0.0213 -6.96052,-6.65259 -15.34985,-11.89888 -24.33231,-15.85418 -8.79519,-3.86234 -18.17532,-6.4635 -27.75055,-7.93704 -0.54417,-0.0837 -0.92074,-0.57545 -0.84351,-1.10741 l 1.19885,-8.25783 c 0.0772,-0.53196 0.61507,-0.89185 1.20531,-0.80145 z"
         style="fill:#ff0000;fill-opacity:1;stroke:#333333;stroke-width:0.34113917;stroke-linecap:round;stroke-linejoin:round;stroke-miterlimit:4;stroke-opacity:1;stroke-dasharray:none;stroke-dashoffset:0"
         inkscape:original-d="m 347.4698,578.26223 55.55762,0 c 0.52029,0 0.93914,0.43268 0.93914,0.97014 l 0,8.34328 c 0,0.53746 -0.41885,0.97014 -0.93914,0.97014 l -55.55762,0 c -0.52029,0 -0.93914,-0.43268 -0.93914,-0.97014 l 0,-8.34328 c 0,-0.53746 0.41885,-0.97014 0.93914,-0.97014 z" />
      <path
         inkscape:connector-curvature="0"
         id="rect3099-5"
         d="m 226.89859,579.51082 c 6.9384,-8.40184 13.97725,-16.97293 22.12731,-24.69384 6.72544,-6.35008 14.23699,-11.81527 22.2677,-16.34001 0.50135,-0.28247 1.06089,-0.22731 1.25187,0.11873 l 2.96475,5.37194 c 0.19099,0.34605 -0.0354,0.83386 -0.50488,1.0983 -7.52077,4.23584 -14.53808,9.33672 -20.78499,15.24707 -7.70248,7.26206 -14.52944,15.60797 -21.49162,24.01831 -0.35565,0.42962 -0.88755,0.57276 -1.19211,0.32074 l -4.72781,-3.91215 c -0.30455,-0.25201 -0.26465,-0.7999 0.0898,-1.22909 z"
         style="fill:#7d7dff;fill-opacity:0.5098038;stroke:none"
         inkscape:original-d="m 230.34905,579.59134 53.93729,0 c 0.50511,0 0.91175,0.31818 0.91175,0.71341 l 0,6.13549 c 0,0.39524 -0.40664,0.71342 -0.91175,0.71342 l -53.93729,0 c -0.50511,0 -0.91175,-0.31818 -0.91175,-0.71342 l 0,-6.13549 c 0,-0.39523 0.40664,-0.71341 0.91175,-0.71341 z" />
      <path
         inkscape:connector-curvature="0"
         id="rect3099-5-5"
         d="m 276.42747,535.88552 c 0.36697,-0.18409 0.73488,-0.36628 1.10368,-0.54657 0,0 0,0 0,0 9.06652,-4.41454 18.86042,-6.93564 28.66474,-8.17826 0,0 0,0 0,0 10.08728,-1.29261 20.30946,-1.27729 30.37523,-0.10041 0.56919,0.0666 0.98749,0.43991 0.93858,0.83214 l -0.75917,6.08883 c -0.0489,0.39223 -0.51986,0.65387 -1.05648,0.59132 -9.48986,-1.10618 -19.09867,-1.12534 -28.53513,0.0889 0,0 0,0 0,0 -9.17979,1.19558 -18.18732,3.48094 -26.30562,7.47103 0,0 0,0 0,0 -0.3457,0.16911 -0.69053,0.33997 -1.03447,0.51257 -0.48135,0.24155 -1.01208,0.15654 -1.19237,-0.19521 l -2.79865,-5.46035 c -0.18028,-0.35174 0.0861,-0.84634 0.59966,-1.10396 z"
         style="fill:#ffeda4;fill-opacity:0.5098038;stroke:none"
         inkscape:original-d="m 289.33733,579.71502 53.93728,0 c 0.50511,0 0.91175,0.31818 0.91175,0.71341 l 0,6.13549 c 0,0.39524 -0.40664,0.71342 -0.91175,0.71342 l -53.93728,0 c -0.50511,0 -0.91175,-0.31818 -0.91175,-0.71342 l 0,-6.13549 c 0,-0.39523 0.40664,-0.71341 0.91175,-0.71341 z" />
      <path
         inkscape:connector-curvature="0"
         id="rect3099-5-5-7"
         d="m 342.19677,527.73504 c 9.97254,1.59966 19.78761,4.3746 29.0883,8.44711 9.51933,4.16059 18.51115,9.7646 26.21123,16.91746 0.4279,0.3975 0.54832,0.95272 0.27541,1.23843 l -4.23664,4.43537 c -0.27291,0.28572 -0.79997,0.22054 -1.18728,-0.14047 -6.96947,-6.49642 -15.25722,-11.6362 -24.09899,-15.52476 -8.65702,-3.79986 -17.85987,-6.39393 -27.25162,-7.9045 -0.53364,-0.0858 -0.91592,-0.46574 -0.85633,-0.85654 l 0.92502,-6.06664 c 0.0596,-0.3908 0.56426,-0.63635 1.1309,-0.54546 z"
         style="fill:#ff7e7e;fill-opacity:0.5098038;stroke:none"
         inkscape:original-d="m 348.2658,579.61192 53.93728,0 c 0.50511,0 0.91175,0.31818 0.91175,0.71341 l 0,6.13549 c 0,0.39524 -0.40664,0.71342 -0.91175,0.71342 l -53.93728,0 c -0.50511,0 -0.91175,-0.31818 -0.91175,-0.71342 l 0,-6.13549 c 0,-0.39523 0.40664,-0.71341 0.91175,-0.71341 z" />
    </g>
    <flowRoot
       xml:space="preserve"
       id="flowRoot4264"
       style="fill:black;stroke:none;stroke-opacity:1;stroke-width:1px;stroke-linejoin:miter;stroke-linecap:butt;fill-opacity:1;font-family:Arial;font-style:normal;font-weight:normal;font-size:8;-inkscape-font-specification:Arial;font-stretch:normal;font-variant:normal;text-anchor:middle;text-align:center;line-height:125%;letter-spacing:0px;word-spacing:0px"><flowRegion
         id="flowRegion4266"><rect
           id="rect4268"
           width="270.47351"
           height="52.775318"
           x="186.03299"
           y="495.58258" /></flowRegion><flowPara
         id="flowPara4270"></flowPara></flowRoot>    <path
       style="fill:none;stroke:#000000;stroke-width:1px;stroke-linecap:butt;stroke-linejoin:miter;stroke-opacity:1"
       d="m 384.05028,733.82096 96.6448,-55.08424 105.88048,21.76982"
       id="path4272"
       inkscape:connector-curvature="0" />
    <path
       style="fill:none;stroke:#000000;stroke-width:1px;stroke-linecap:butt;stroke-linejoin:miter;stroke-opacity:1"
       d="m 401.5945,786.9597 96.6448,-55.08424"
       id="path4272-0"
       inkscape:connector-curvature="0"
       sodipodi:nodetypes="cc" />
    <path
       style="fill:none;stroke:#000000;stroke-width:1px;stroke-linecap:butt;stroke-linejoin:miter;stroke-opacity:1"
       d="M 499.63872,731.87546 605.5192,753.64528"
       id="path4272-2"
       inkscape:connector-curvature="0"
       sodipodi:nodetypes="cc" />
  </g>
</svg>
